# xmcd
#
# Track frame offsets:
#	150
#	12287
#	27724
#	44065
#	56436
#	71841
#	86955
#	98168
#
# Disc length: 1522 seconds
#
# Revision: 0
# Processed by: cddbd v1.5.1PL2 Copyright (c) Steve Scherf et al.
# Submitted via: dBpowerAMP V4.0
#
DISCID=7105f008
DTITLE=Luis Frometa Sr. - Mis Cuerdas Te Alaban
DYEAR=2005
DGENRE=Latin
TTITLE0=Elias Y Los Baales
TTITLE1=Mision Pastoral
TTITLE2=Ruego
TTITLE3=Alfabeto Apocaliptico
TTITLE4=Mas De Tu Luz
TTITLE5=Bella Historia
TTITLE6=Arca De Noe
TTITLE7=Dulce Llanto
EXTD=
EXTT0=
EXTT1=
EXTT2=
EXTT3=
EXTT4=
EXTT5=
EXTT6=
EXTT7=
PLAYORDER=
